<?xml version="1.0" standalone="no"?><!DOCTYPE svg PUBLIC "-//W3C//DTD SVG 1.1//EN" "http://www.w3.org/Graphics/SVG/1.1/DTD/svg11.dtd"><svg t="1724227453306" class="icon" viewBox="0 0 1024 1024" version="1.1" xmlns="http://www.w3.org/2000/svg" p-id="5353" xmlns:xlink="http://www.w3.org/1999/xlink" width="200" height="200"><path d="M64 511.9c0 247.2 200.4 447.7 447.7 447.7 247.2 0 447.7-200.4 447.7-447.7 0-247.2-200.4-447.7-447.7-447.7C264.4 64.2 64 264.6 64 511.9z" fill="#CF0021" p-id="5354"></path><path d="M573.5 428.6c0-34-27.8-60.9-61.8-60.9s-61.8 27.8-61.8 60.9c0 34 27.8 60.9 61.8 60.9 34 0.9 61.8-26.9 61.8-60.9" fill="#FFFFFF" p-id="5355"></path><path d="M388.1 428.6c0-67.2 55.5-122.7 123.6-122.7 68 0 123.6 54.6 123.6 122.7s-55.5 122.7-123.6 122.7-123.6-54.6-123.6-122.7m308.9 0c0-101.2-83.3-183.5-185.3-183.5-102.1 0-185.3 82.4-185.3 183.5s185.3 306.2 185.3 306.2S697 530.7 697 428.6z m0 0" fill="#FFFFFF" p-id="5356"></path><path d="M566.3 682c0.9 0 4.5 2.7 5.4 2.7 4.5 2.7 8.1 4.5 11.6 8.1 6.3 5.4 17 15.2 15.2 24.2-0.9 4.5-3.6 6.3-7.2 9-6.3 4.5-12.5 8.1-18.8 11.6-4.5 2.7-9.8 4.5-14.3 6.3-10.7 3.6-21.5 5.4-32.2 5.4-21.5 0.9-44.8-0.9-65.4-8.1-5.4-1.8-10.7-4.5-16.1-7.2-2.7-1.8-5.4-2.7-8.1-4.5-5.4-3.6-19.7-11.6-2.7-30.4 4.5-4.5 9-8.1 14.3-11.6 1.8-0.9 7.2-5.4 9-5.4-82.4-8.1-76.1 43.9-76.1 43.9 6.3 54.6 130.7 52.8 130.7 52.8s124.4 1.8 130.7-53.7c0.1-0.1-6.2-51.2-76-43.1" fill="#FFFFFF" p-id="5357"></path></svg>